<?xml version="1.0" encoding="UTF-8" standalone="no"?>
<!-- Created with Inkscape (http://www.inkscape.org/) -->

<svg
   version="1.1"
   id="svg1"
   width="2272.5471"
   height="635.64252"
   viewBox="0 0 2272.5471 635.64252"
   sodipodi:docname="avlgo_banner_logo_v2.svg"
   inkscape:version="1.3 (0e150ed6c4, 2023-07-21)"
   xmlns:inkscape="http://www.inkscape.org/namespaces/inkscape"
   xmlns:sodipodi="http://sodipodi.sourceforge.net/DTD/sodipodi-0.dtd"
   xmlns="http://www.w3.org/2000/svg"
   xmlns:svg="http://www.w3.org/2000/svg">
  <defs
     id="defs1" />
  <sodipodi:namedview
     id="namedview1"
     pagecolor="#ffffff"
     bordercolor="#000000"
     borderopacity="0.25"
     inkscape:showpageshadow="2"
     inkscape:pageopacity="0.0"
     inkscape:pagecheckerboard="true"
     inkscape:deskcolor="#d1d1d1"
     showgrid="false"
     inkscape:zoom="0.49822443"
     inkscape:cx="1111.9487"
     inkscape:cy="587.08482"
     inkscape:window-width="2560"
     inkscape:window-height="1494"
     inkscape:window-x="-11"
     inkscape:window-y="-11"
     inkscape:window-maximized="1"
     inkscape:current-layer="g1" />
  <g
     inkscape:groupmode="layer"
     inkscape:label="Image"
     id="g1"
     transform="translate(-157.82501,-422.11086)">
    <path
       id="path1"
       style="fill:#0871aa;fill-opacity:1;stroke:#0871aa;stroke-width:15.9;stroke-dasharray:none;stroke-opacity:1"
       d="m 906.95312,430.06836 c -11.6447,0.18203 -23.26697,3.8832 -32.69759,10.75278 -7.343,5.4129 -12.82433,12.86139 -17.8713,20.356 -6.55308,9.85663 -12.39572,20.15922 -18.44789,30.32472 -22.66074,38.45534 -45.18434,76.98855 -67.61635,115.57694 -10.88234,18.68934 -21.9405,37.27176 -32.7855,55.98137 -15.29484,26.27662 -30.32089,52.70576 -45.59498,78.99574 -7.80605,13.41302 -15.62982,26.78792 -23.59087,40.1161 -7.38142,12.34333 -14.37351,24.95617 -22.80945,36.63001 -3.3322,4.65438 -6.88624,9.14969 -10.64661,13.46556 -1.36964,1.58007 -3.03034,3.39072 -4.42578,4.89648 -3.58957,3.81011 -7.30821,7.54858 -11.14239,11.02671 -7.3377,6.70604 -15.4759,12.81968 -24.13198,17.86329 -4.20287,2.47092 -8.6558,4.76494 -13.00493,6.77992 -3.42373,1.57623 -6.77209,3.01034 -10.27151,4.37408 -0.70756,0.26564 -1.28655,0.50182 -1.91668,0.72004 -4.58362,1.65364 -9.38593,3.07014 -14.00908,4.31995 -5.88545,1.56855 -11.92587,2.97966 -17.98926,4.04098 -3.37659,0.62559 -6.79555,0.97285 -10.22698,1.08775 -10.31966,0.45968 -20.69634,0.60599 -31.06225,0.67047 -4.98871,0.0129 -9.97975,0.0286 -14.96565,-0.16053 3.74437,-7.37107 7.95169,-14.49438 12.08745,-21.64975 7.09806,-11.97314 14.01578,-24.0605 20.7078,-36.26969 6.93811,-12.54923 14.23432,-24.89436 21.38662,-37.32121 3.81949,-6.7413 7.78056,-13.41078 11.25336,-20.34004 3.59172,-7.07993 3.19967,-16.18789 -1.46787,-22.69169 -1.77636,-2.43631 -4.15199,-4.5924 -7.11507,-5.41685 -4.02542,-1.21557 -8.32839,-1.50826 -12.49291,-0.96116 -2.09446,0.25549 -4.07239,1.06248 -5.84154,2.19621 -3.72347,2.19615 -5.95218,6.05698 -8.153,9.63394 -3.9822,6.7066 -7.68201,13.70782 -11.4332,20.45305 -1.93139,3.52032 -4.11763,6.88927 -6.08611,10.38864 -8.72089,15.0683 -17.39876,30.1619 -25.9846,45.3081 -8.50061,15.13277 -17.14126,30.1875 -25.72511,45.27348 -7.979,14.0229 -16.0504,27.99324 -24.14024,41.95204 -14.019,24.31488 -28.03249,48.6358 -41.92547,73.01877 -4.9141,8.64214 -10.04791,17.16514 -14.61865,25.99704 -1.93324,3.9286 -3.98076,7.9697 -4.39677,12.394 -0.34718,3.9643 1.36401,7.7319 3.27734,11.0937 1.76356,3.0117 4.54277,5.3579 7.75826,6.6929 3.41501,1.4146 7.13773,2.6244 10.87349,1.9634 2.95553,-0.4886 5.99571,-1.2788 8.32852,-3.2618 3.41019,-2.8067 5.83789,-6.5715 8.24156,-10.2256 6.96542,-11.0169 12.96581,-22.6016 19.48489,-33.8811 9.48453,-16.61279 19.27919,-33.04731 28.57555,-49.76687 4.68297,-8.35574 9.34915,-16.7202 14.01899,-25.08342 19.77318,-0.31045 39.54833,-0.51172 59.31978,-0.92266 11.41897,-0.31382 22.93654,-0.56081 34.13698,-3.03665 6.81144,-1.50158 13.57266,-3.24159 20.2642,-5.21017 17.09573,-5.05581 33.54499,-12.38173 48.55908,-22.01463 11.89487,-7.61502 22.93118,-16.53758 33.09115,-26.33733 5.68241,-5.60086 11.15677,-11.43305 16.08549,-17.71414 1.16975,-1.4303 2.35234,-2.85067 3.57847,-4.23317 2.26748,3.48596 4.16837,7.06555 6.25385,10.68831 12.1243,21.28993 24.36431,42.51378 36.83791,63.60188 13.41313,22.9182 26.59095,45.97299 39.88618,68.95961 7.19327,12.41434 14.29971,24.87914 21.52275,37.27564 3.026,5.0332 5.96541,10.1796 9.82021,14.6395 2.30768,2.6788 5.35351,4.8917 8.90788,5.4731 3.19098,0.5155 6.48537,0.4699 9.66442,-0.1137 3.79578,-0.6784 7.29776,-2.8173 9.57744,-5.935 3.82727,-5.0914 5.69977,-11.8785 4.05999,-18.1343 -0.74541,-3.08 -2.56877,-5.7272 -4.04175,-8.4888 -6.68178,-11.7714 -13.79717,-23.28907 -20.55546,-35.01677 -6.25781,-10.72732 -12.27393,-21.59236 -18.54063,-32.31444 -14.64248,-25.12761 -29.28676,-50.25592 -43.76305,-75.47929 -11.83908,-20.57337 -24.00975,-40.95662 -35.53308,-61.71139 -0.14246,-0.52961 -0.9881,-1.09025 -0.48062,-1.59119 3.66691,-5.21045 6.81929,-10.75425 10.08476,-16.21861 5.26866,-8.89827 10.3693,-17.89322 15.45637,-26.89585 12.57545,-21.81609 25.49514,-43.4309 38.18508,-65.20874 11.57583,-20.11925 23.579,-39.989 35.19451,-60.08441 11.02747,-18.97618 21.93152,-38.01311 33.13747,-56.86809 12.27645,-20.74563 24.28598,-41.64885 36.50613,-62.41866 7.6599,-12.97287 15.04832,-26.11586 23.27081,-38.74669 1.7471,-2.59862 3.46064,-5.37383 5.52344,-7.79492 2.54258,-2.69292 5.7712,-4.92982 9.50209,-5.49231 4.82548,-0.7888 10.04754,-0.14287 14.1791,2.61099 4.78939,3.14369 8.17312,7.9249 11.18886,12.69741 6.24303,10.44076 12.40417,20.92996 18.63079,31.38075 11.66163,19.64395 23.33056,39.28378 34.82476,59.02685 6.71536,11.38896 13.5436,22.68769 20.21546,34.0745 16.7648,28.5205 33.6087,56.99799 50.3544,85.52735 2.6099,4.32908 5.1493,8.71173 8.038,12.86305 0.5072,0.6322 1.1382,1.44921 2.0431,1.26258 0.6722,0.12906 1.1895,-0.0732 1.513,-0.69032 1.844,-2.45253 3.3247,-5.15809 4.934,-7.76704 4.6595,-7.87753 9.2998,-15.77239 13.6252,-23.8394 0.4517,-0.99374 1.1792,-1.97182 1.1884,-3.08509 -0.3617,-1.68451 -1.3642,-3.1464 -2.1108,-4.67976 -6.2385,-11.60259 -12.8405,-23.00626 -19.3976,-34.42978 -10.0008,-17.34946 -20.1757,-34.59705 -30.5327,-51.7365 -18.4934,-30.88023 -36.78315,-61.8841 -55.26517,-92.76848 -6.70425,-11.12877 -13.33929,-22.30694 -20.49883,-33.15213 -3.19724,-4.71561 -6.41,-9.51463 -10.6137,-13.40814 -3.10989,-2.81643 -6.8443,-4.7937 -10.45492,-6.8769 -8.7799,-4.76314 -18.8005,-7.13908 -28.77946,-6.98052 z M 2197.9922,570.18359 c -28.45,0.30303 -56.8898,5.72176 -83.3143,16.31546 -16.3952,6.56919 -31.9698,15.24478 -45.9887,26.00576 -11.1587,8.54039 -21.6332,18.00938 -31.0109,28.48229 -5.7409,6.38877 -10.7526,13.38474 -15.6641,20.41834 -10.9224,15.84275 -20.1256,32.90515 -26.9354,50.91623 -7.6316,20.06261 -12.3747,41.12569 -15.3275,62.35629 -1.7182,12.37098 -1.5087,24.89149 -1.5228,37.35016 0.059,12.04274 0.4912,24.1191 2.3188,36.03926 2.4086,15.73607 5.9185,31.32738 10.9426,46.44192 6.9246,20.90611 16.6073,40.9017 28.7422,59.28051 14.8212,22.35765 33.7981,41.97872 55.8118,57.32489 22.1863,15.5139 47.3893,26.6282 73.731,32.824 10.308,2.4175 20.7829,4.1626 31.3315,5.0914 9.5912,0.611 19.2144,0.434 28.8138,0.12 9.7529,-0.4104 19.5393,-0.9166 29.16,-2.6668 19.6814,-3.429 38.9026,-9.5231 56.9503,-18.0921 23.4558,-11.146 44.565,-27.045 62.1369,-46.13656 23.1232,-25.05269 40.1773,-55.41391 50.9031,-87.70514 4.2038,-12.67383 7.5282,-25.64889 9.7962,-38.80959 3.1228,-18.80751 4.0289,-37.94397 3.3359,-56.98257 -0.6655,-17.07425 -2.6157,-34.14084 -6.5191,-50.7909 -7.0508,-29.3774 -18.6307,-57.80717 -35.3199,-83.0543 -13.0742,-19.78172 -29.3248,-37.52357 -48.2513,-51.84286 -17.3376,-13.16305 -36.8848,-23.38073 -57.5477,-30.21502 -7.6926,-2.54572 -15.3473,-5.30939 -23.3188,-6.86961 -8.2124,-1.76106 -16.471,-3.35635 -24.8233,-4.29348 -9.4317,-1.108 -18.9347,-1.59582 -28.4303,-1.50758 z m -429.6465,0.0937 c -23.3644,0.14745 -46.6567,3.85704 -69.0566,10.44532 -16.4322,5.00148 -32.2415,12.06977 -46.9093,21.00844 -6.7043,4.05629 -13.05,8.67506 -19.1382,13.60185 -14.1412,11.3528 -27.0646,24.28026 -37.9729,38.78597 -12.5361,16.60011 -22.4391,35.07463 -30.3467,54.28216 -8.9096,21.71198 -14.788,44.66208 -17.4033,67.98545 -2.2905,20.1802 -2.2694,40.59747 -0.3799,60.80868 2.1145,22.27759 6.9781,44.32501 14.8579,65.28418 5.711,15.22438 12.8919,29.89264 21.3067,43.8034 7.422,11.95721 16.2196,23.01284 25.6475,33.4421 8.5092,9.29719 17.551,18.17271 27.5988,25.80906 2.0879,1.5633 4.216,3.0757 6.421,4.47 -4.1194,0.3099 -8.1559,0.2933 -12.3061,0.3727 -21.3747,0.1912 -42.7512,-0.013 -64.1237,-0.3412 -9.1013,-0.1647 -18.1952,-0.3193 -27.2616,-0.7008 -2.6504,-0.1069 -5.3102,-0.2441 -7.9035,-0.8429 -18.7991,-3.6096 -36.6545,-11.98686 -51.4359,-24.15126 -9.6151,-7.89001 -18.0102,-17.26153 -24.7956,-27.68634 -5.5748,-8.4503 -10.3298,-17.39818 -15.4315,-26.13328 -25.2943,-43.95699 -50.7869,-87.8104 -76.1461,-131.72985 -10.8192,-18.61798 -21.6063,-37.25377 -32.3659,-55.9058 -13.8962,-24.00291 -27.863,-47.96528 -41.6557,-72.02829 -9.3392,-16.19898 -18.5475,-32.47339 -27.9935,-48.60984 -3.8769,-6.50503 -7.6514,-13.1003 -12.1933,-19.173 -3.1964,-4.21682 -7.0691,-7.86774 -11.0853,-11.29063 -5.9516,-4.99316 -12.9805,-8.79747 -20.5911,-10.50102 -6.7723,-1.51956 -13.819,-1.73274 -20.6964,-0.86804 -8.9775,1.13894 -17.6008,4.73598 -24.7816,10.23374 -5.03,3.87715 -9.6319,8.36311 -13.3029,13.56313 -5.0555,7.12775 -9.3776,14.73664 -13.8137,22.25552 -18.6444,32.06338 -37.4787,64.01551 -56.044,96.12452 -11.575,20.03559 -23.0831,40.12303 -34.8732,59.99688 -10.2655,17.37797 -20.194,34.9515 -30.4146,52.35649 -16.7883,28.7409 -33.66113,57.43178 -50.32591,86.24284 -5.60489,9.5853 -11.37456,19.07299 -16.85681,28.72965 -7.04048,12.37564 -13.95322,24.78913 -21.68298,36.76738 -0.96099,1.47751 -1.9425,2.94261 -2.98746,4.36233 -9.67258,-16.32453 -19.06496,-32.85175 -28.54777,-49.31247 -20.81281,-36.21034 -41.71039,-72.3765 -62.46691,-108.62142 -13.29799,-23.10597 -26.21377,-46.43262 -39.79519,-69.37355 -2.97764,-4.93917 -5.87117,-9.94673 -9.25058,-14.62671 -3.63475,-4.83935 -9.92698,-7.42208 -15.91806,-6.7182 -6.11986,0.65536 -11.73218,4.41706 -14.9668,9.60547 -2.52665,4.19637 -2.8462,9.31918 -2.25495,14.07553 0.66291,4.91116 3.45997,9.1451 6.00302,13.27457 4.48817,7.00353 8.48991,14.2147 12.65485,21.42517 14.90343,26.10381 29.74435,52.24339 44.78625,78.26729 14.51022,25.17142 29.12364,50.28325 43.55662,75.49865 13.26473,23.15556 26.56869,46.29404 39.88366,69.41854 3.42149,5.8167 6.71358,11.7323 10.65329,17.2218 2.11343,2.9004 4.71498,5.7347 8.25674,6.8046 3.16258,1.0136 6.52033,1.2886 9.82101,1.0053 2.71664,-0.1258 5.42771,-0.8269 7.72841,-2.3111 4.78882,-3.0119 8.17543,-7.7472 10.9239,-12.5941 2.757,-5.2005 5.78096,-10.2518 8.85865,-15.2669 6.94483,-11.7043 13.4075,-23.68618 20.30064,-35.42086 5.44539,-9.32373 11.00146,-18.5825 16.40122,-27.93328 10.54416,-18.18911 21.03726,-36.41 31.76626,-54.49195 9.1504,-15.44204 18.1854,-30.95169 27.1068,-46.52754 8.5979,-14.96895 17.4034,-29.81525 26.1701,-44.68091 3.6367,-6.15968 7.181,-12.37241 10.7069,-18.5956 6.4023,-11.18064 13.2776,-22.08553 19.5518,-33.33948 2.2526,-4.41203 4.8807,-8.61439 7.5039,-12.8113 8.3761,-13.92573 16.3361,-28.09481 24.47,-42.16257 8.7356,-15.17266 17.5079,-30.29842 26.556,-45.29101 2.3738,-4.02947 4.8399,-8.01116 7.0285,-12.14493 0.5552,-1.96571 1.7971,-3.65336 2.7969,-5.41709 2.021,-3.2982 4.2278,-6.62205 6.3906,-9.73721 1.7661,-2.44428 3.4325,-4.99315 5.5228,-7.17685 4.6123,-3.5683 11.1095,-5.03436 16.6375,-2.84503 4.2193,1.73541 7.1493,5.45377 9.7035,9.07817 4.427,6.46595 7.8761,13.52358 11.7614,20.31341 6.2117,11.13974 12.765,22.08376 19.1083,33.14835 12.2633,21.24438 24.4797,42.5476 36.8666,63.7339 8.8762,15.20121 17.4941,30.52331 26.4155,45.7045 4.0511,6.96419 8.1976,13.87564 12.1166,20.91492 2.2227,4.18452 4.6472,8.26176 6.9811,12.38595 11.1221,19.34262 22.3025,38.65353 33.4433,57.98474 9.7205,16.75401 19.5954,33.41818 29.1652,50.26035 8.6561,15.14344 17.3461,30.28319 26.8454,44.91817 5.8465,8.87572 11.9793,17.68063 19.6679,25.08205 14.8148,14.6757 32.4468,26.5792 51.8348,34.3233 15.6702,6.2932 32.3785,9.933 49.2225,10.9854 10.1774,0.4044 20.3664,0.4093 30.5504,0.5139 46.4665,0.2687 92.9341,0.065 139.4005,-0.1232 21.212,-0.1228 42.4265,-0.1405 63.6346,-0.6036 6.4055,-0.1962 12.8366,-0.2869 19.1963,-1.1438 16.4977,-2.5524 32.8066,-6.4912 48.5285,-12.1291 9.4226,-3.3117 18.4653,-7.6274 27.1487,-12.5472 10.7347,-6.0967 21.0741,-12.9511 30.5572,-20.8702 4.536,-3.88402 9.0248,-7.9553 12.4337,-12.89803 1.3279,-2.06695 2.5081,-4.22491 3.7734,-6.33041 -0.016,-34.99816 0.037,-69.9964 -0.036,-104.9945 -0.071,-18.8246 -0.1173,-37.65093 -0.5008,-56.47229 -0.1569,-2.34576 0.1336,-4.81521 -0.8809,-7.01292 -1.6189,-3.78513 -4.2633,-7.0688 -7.2659,-9.85159 -2.0029,-1.78747 -4.3199,-3.51543 -7.0848,-3.75827 -5.2204,-0.61223 -10.4888,-0.6021 -15.7371,-0.73245 -18.1485,-0.26202 -36.2997,-0.20515 -54.4496,-0.21886 -15.1186,0.0326 -30.2412,-0.0657 -45.3558,0.3271 -5.3336,0.21963 -10.7212,0.30583 -15.959,1.43594 -2.8094,0.5904 -5.4304,1.96676 -7.4812,3.9799 -4.7778,4.06261 -7.5835,10.25502 -7.6253,16.51232 -0.1579,7.5388 3.5607,15.13495 9.8876,19.32444 2.5495,1.73869 5.4946,2.92098 8.5819,3.19662 6.0995,0.63396 12.2427,0.60863 18.3677,0.73685 24.7089,0.26602 49.4195,0.30998 74.1292,0.46008 1.4734,0.008 2.9467,0.0151 4.4201,0.0227 0.1152,30.98459 0.353,61.96895 0.3282,92.9539 -0.046,8.90601 0,17.81497 -0.2471,26.7181 0.097,0.86037 -0.8261,1.32551 -1.3076,1.90417 -3.4427,3.08079 -7.3264,5.61238 -11.1622,8.16797 -9.9375,6.49457 -20.6249,12.25137 -31.8143,16.47293 -1.2651,0.48538 -2.4556,0.91816 -3.7808,1.38164 -3.4478,1.2036 -6.9414,2.27388 -10.4654,3.23137 -1.2803,0.34229 -2.798,0.73525 -4.1757,1.06896 -9.9534,2.36853 -20.0928,4.06453 -30.3205,4.58823 -6.0183,0.3425 -12.0466,0.4204 -18.1097,0.2724 -3.5453,-0.082 -7.2152,-0.2632 -10.7556,-0.5274 -7.3507,-0.5378 -14.6857,-1.5265 -21.8269,-3.38531 -14.8028,-3.70618 -29.1209,-9.3537 -42.4861,-16.71525 -11.575,-6.34908 -22.144,-14.42271 -31.7513,-23.45202 -0.6073,-0.57892 -1.431,-1.35428 -2.0314,-1.94827 -2.5807,-2.51202 -5.141,-5.15758 -7.5076,-7.76002 -8.6367,-9.46346 -16.2684,-19.82988 -22.8653,-30.80929 -0.7886,-1.31685 -1.6767,-2.83808 -2.4784,-4.24726 -4.2099,-7.4127 -7.9444,-15.09296 -11.213,-22.96563 -0.6666,-1.6146 -1.3959,-3.43211 -2.0498,-5.1397 -4.9202,-12.80865 -8.5859,-26.09553 -10.9639,-39.60835 -0.2571,-1.51583 -0.5487,-3.25482 -0.7909,-4.86026 -0.3802,-2.49645 -0.7036,-4.88593 -0.9552,-7.42489 -0.4149,-4.11278 -0.6678,-8.39269 -0.8554,-12.42383 -0.268,-6.51509 -0.305,-13.15403 -0.09,-19.59961 0.2127,-6.15676 0.6299,-12.18054 1.2923,-18.28761 0.3064,-2.81093 0.6856,-5.81672 1.1153,-8.69107 3.2768,-22.40199 10.0894,-44.43601 20.6913,-64.53971 10.8625,-20.65698 25.5612,-39.17026 43.1037,-54.61152 4.1519,-3.63167 8.5424,-7.10458 12.9888,-10.25876 6.4645,-4.59059 13.4508,-8.79 20.6309,-12.32995 2.3694,-1.16998 4.7191,-2.25401 7.0618,-3.26476 3.103,-1.33953 6.2915,-2.5893 9.3663,-3.67899 4.6157,-1.64924 9.3774,-3.08561 14.0582,-4.29466 5.7455,-1.47781 11.7247,-2.68636 17.6487,-3.59951 9.997,-1.56531 20.1879,-2.28859 30.3547,-2.14255 2.0368,0.0218 4.0727,0.0913 6.108,0.16979 1.2037,0.0668 2.6612,0.12872 3.9613,0.22228 2.8014,0.17665 5.605,0.42312 8.3286,0.72002 11.2128,1.22058 22.348,3.38732 33.089,6.85848 0.6656,0.2306 1.6368,0.54512 2.4169,0.8171 1.3491,0.46884 2.8756,1.03555 4.0928,1.50907 6.8064,2.66404 13.5668,5.74489 19.9024,9.26563 8.9237,4.92315 17.4421,10.86846 25.5985,17.07762 4.6928,3.52026 9.615,7.0921 15.3993,8.527 3.9171,0.89779 8.0779,0.83687 11.9542,-0.23368 4.6747,-1.34479 8.4361,-4.7749 11.3058,-8.58517 4.288,-5.81892 5.6288,-13.66872 3.4885,-20.57571 -1.2614,-4.26128 -3.8431,-8.05036 -7.1323,-11.01129 -7.1231,-6.70793 -15.1674,-12.3543 -23.4046,-17.59995 -11.3533,-7.1244 -23.2374,-13.46192 -35.6976,-18.429 -7.6378,-2.97617 -15.511,-5.31055 -23.4395,-7.37186 -19.043,-4.8768 -38.707,-7.3094 -58.3653,-7.17687 z m -1239.1914,9.63868 c -13.05108,0.35674 -25.95638,5.33888 -35.71988,14.03453 -5.64479,4.86889 -9.87289,11.08891 -13.82734,17.34299 -7.26986,11.61024 -13.94669,23.57649 -20.79653,35.43652 -15.22207,26.57124 -30.64166,53.02865 -45.86947,79.59619 -9.23307,16.1463 -18.46976,32.29165 -27.82219,48.3699 -10.11129,17.38841 -20.12635,34.83148 -30.16158,52.26406 -17.69165,30.61187 -35.69417,61.04336 -53.28536,91.71264 -7.21252,12.7379 -14.61014,25.3696 -21.95142,38.0331 -4.21691,6.72794 -9.44761,12.7574 -14.90581,18.49937 -5.99855,6.21126 -12.41799,12.09695 -19.71202,16.76463 -9.8997,6.56246 -20.80713,11.6812 -32.33952,14.6024 -2.93601,0.7638 -5.90765,1.3846 -8.89599,1.9061 -0.8544,0.1409 -1.99217,0.3381 -2.96091,0.4716 -2.25099,0.329 -4.3323,0.5866 -6.59485,0.805 -1.68279,0.1665 -3.26099,0.2915 -4.89797,0.3966 -3.60526,0.2153 -7.45734,0.3161 -11.02794,1.3648 -4.13305,1.0878 -8.04091,3.6013 -10.09872,7.434 -2.19642,3.99 -2.66411,8.6864 -2.46749,13.1675 0.23517,4.7932 1.99218,9.7248 5.72491,12.902 3.48109,3.0527 8.18856,4.1968 12.71857,4.365 7.46955,0.3125 14.93427,-0.5377 22.30674,-1.6674 11.43264,-1.7791 22.69183,-4.7698 33.39146,-9.1938 26.12513,-10.7388 49.11558,-28.8079 66.07909,-51.35891 4.40033,-5.80703 8.27484,-11.98831 11.89042,-18.30804 13.31632,-22.80422 26.40968,-45.74028 39.67734,-68.57341 7.78677,-13.46911 15.45129,-27.0098 23.38366,-40.39544 5.65625,-9.5638 11.24541,-19.16814 16.68293,-28.85642 19.86996,-34.73467 40.03204,-69.30107 60.09771,-103.92237 10.5497,-18.16251 20.8847,-36.40979 31.4495,-54.55843 7.48566,-12.87295 14.94845,-25.76353 22.44047,-38.63667 2.50797,-4.05627 5.06148,-8.24674 8.80853,-11.2904 2.74352,-2.26901 6.36363,-3.09056 9.85536,-3.11133 2.88909,-0.0819 6.0311,0.0238 8.43607,1.83842 3.24945,2.43636 5.51575,5.88982 7.78871,9.19613 5.47314,8.3604 10.34,17.09553 15.34221,25.74049 11.36338,19.84522 22.93354,39.57128 34.54814,59.27075 6.69009,11.36274 13.24159,22.80582 19.94793,34.15894 4.68472,7.94935 9.32141,15.92722 13.99432,23.88318 1.23319,1.88597 2.38732,3.90874 4.12114,5.38461 0.95784,0.8335 2.51326,0.7089 3.2879,-0.31113 2.01749,-2.4697 3.59957,-5.26159 5.30524,-7.94911 4.34143,-7.23363 8.50175,-14.58004 13.00586,-21.7168 0.68356,-1.35907 1.61916,-2.79549 1.45312,-4.37695 -0.53763,-1.82685 -1.593,-3.45669 -2.43476,-5.15617 -5.64152,-10.49443 -11.76029,-20.72134 -17.677,-31.06116 -6.56699,-11.33348 -12.93115,-22.78462 -19.71882,-33.987 -9.64002,-16.43774 -19.06388,-33.0043 -28.51082,-49.55084 -4.86556,-8.34024 -9.81149,-16.68432 -15.80094,-24.28025 -4.08513,-5.1981 -9.00103,-9.78566 -14.71121,-13.15163 -8.85155,-5.29968 -19.25765,-7.83045 -29.54879,-7.52779 z m 1668.8945,36.17578 c 5.008,-0.0235 10.0025,0.16699 14.9532,0.55273 8.3756,0.65609 16.7054,1.87368 24.9257,3.60547 0.7268,0.16559 1.7575,0.39012 2.6009,0.57834 3.2463,0.73945 6.49,1.55811 9.5958,2.44581 7.7613,2.20497 15.5977,5.01872 22.9225,8.38405 8.8548,4.01955 17.1045,9.24132 25.0263,14.85123 17.6119,12.52532 32.9691,28.25024 44.8565,46.31195 1.4098,2.12794 2.6972,4.17814 4.0277,6.38144 9.0517,15.03049 15.8395,31.36174 20.6852,48.20734 0.56,1.98034 1.1625,4.14915 1.69,6.21674 2.0406,7.8264 3.7103,15.93184 4.7709,24.02409 0.4748,3.61674 0.8828,7.3406 1.1694,10.89078 0.2778,3.31555 0.483,6.7037 0.6148,9.94697 0.6961,17.52178 -0.3132,35.13641 -3.3428,52.41599 -3.1399,17.86129 -8.9478,35.21798 -16.7907,51.55521 -9.1587,18.98504 -21.1669,36.70062 -36.1263,51.60043 -1.967,1.94899 -3.9343,3.81225 -5.9229,5.61654 -9.2119,8.34672 -19.3205,15.71062 -30.1386,21.83871 -3.3091,1.87097 -6.9293,3.76532 -10.4817,5.44266 -2.8252,1.34052 -5.6874,2.59834 -8.4922,3.73832 -2.6155,1.06479 -5.1781,2.02926 -7.8948,2.97745 -5.5899,1.94705 -11.3438,3.60872 -17.0437,4.93874 -3.533,0.82713 -7.2815,1.57796 -10.8649,2.17956 -6.9545,1.2505 -14.0344,1.4854 -21.0789,1.7724 -8.0722,0.2482 -16.2726,0.4012 -24.3977,0.017 -2.7946,-0.1148 -5.5596,-0.6532 -8.2512,-1.0944 -13.3659,-2.26692 -26.5841,-5.63336 -39.1941,-10.65171 -0.8661,-0.35374 -1.9929,-0.80243 -2.9535,-1.21047 -15.3098,-6.42109 -29.4788,-15.42068 -42.1407,-26.13059 -6.4982,-5.5698 -12.4831,-11.72141 -18.0542,-18.21363 -0.5806,-0.68652 -1.4602,-1.73106 -2.0313,-2.41406 -11.7371,-14.26462 -21.6382,-30.07112 -29.1038,-46.97663 -3.6305,-8.24461 -6.506,-16.79856 -9.1415,-25.40533 -2.6328,-8.712 -4.6169,-17.62631 -5.7567,-26.65906 -0.2033,-1.62575 -0.418,-3.46909 -0.5835,-5.18443 -0.3852,-3.84632 -0.6463,-7.65564 -0.8393,-11.44456 -0.3945,-8.13892 -0.5824,-16.31711 -0.4518,-24.50791 0.238,-16.17527 1.8999,-32.5566 5.9054,-48.32799 2.0582,-8.26225 4.7686,-16.34836 7.8364,-24.28706 0.4813,-1.2124 1.0343,-2.65012 1.5673,-3.94309 6.8192,-16.79063 15.6797,-32.83732 27.0782,-46.96756 8.6439,-10.79102 18.8007,-20.51491 29.7911,-28.97994 12.2853,-9.50707 25.8111,-17.49328 40.3413,-23.0474 5.5676,-2.14474 11.2695,-3.93088 17.0464,-5.41943 0.6163,-0.15419 1.5541,-0.38161 2.2938,-0.56389 9.8176,-2.36343 19.944,-3.81451 29.9405,-4.60799 3.8406,-0.28636 7.5984,-0.42893 11.4375,-0.45312 z M 1215.0605,742.623 c -3.6505,0.12237 -7.3419,1.15461 -10.2555,3.42175 -3.6628,2.67478 -5.9522,6.70795 -8.3091,10.48332 -5.0191,8.43674 -9.7277,17.05026 -14.5908,25.57743 -12.2984,21.69267 -24.5842,43.39267 -37.0858,64.96945 -9.5389,16.38148 -18.9226,32.85168 -28.3888,49.27698 -15.8448,27.61411 -31.7765,55.1788 -47.6621,82.76717 -6.5456,11.38695 -13.1024,22.7737 -19.6829,34.1442 -2.7357,5.0233 -5.2623,10.3834 -5.7106,16.165 -0.3692,4.4036 1.0266,8.941 3.9552,12.2729 2.2451,2.5913 4.8983,4.9769 8.1017,6.2962 1.7845,0.5717 3.6574,0.8368 5.4824,1.2478 5.3842,0.1627 10.7741,0.1208 16.1608,0.1719 49.2974,0.1882 98.5953,0.1487 147.893,0.121 51.9586,-0.046 103.9172,-0.093 155.8758,-0.1377 2.9282,-2.0337 6.2015,-3.7118 8.5012,-6.5129 4.688,-5.4322 5.8866,-13.5175 3.1429,-20.124 -1.8711,-4.671 -5.6974,-8.4939 -10.3658,-10.3716 -1.6663,-0.7559 -3.4734,-1.2113 -5.3118,-1.1269 -17.8986,-0.2683 -35.7999,-0.2974 -53.7,-0.3923 -69.5044,-0.3249 -139.011,-0.1677 -208.514,-0.7768 -5.8016,-0.061 -11.7396,-0.1105 -17.4557,-0.2346 -0.3719,-0.1296 0.3754,-0.9377 0.4724,-1.3399 5.6194,-10.92954 11.9685,-21.45975 18.0497,-32.13374 16.1356,-27.99268 32.0155,-56.17411 48.1771,-84.13576 8.2154,-14.21323 16.663,-28.29512 24.6632,-42.63034 8.6912,-15.432 17.6972,-30.68395 26.4172,-46.09913 5.3787,-9.47766 10.8006,-18.93025 16.0942,-28.45654 1.9444,-3.6246 3.9586,-7.44912 3.9889,-11.66752 0.3266,-7.29035 -3.3374,-14.7942 -9.6714,-18.56035 -3.1073,-1.73113 -6.748,-2.32317 -10.2714,-2.21502 z" />
  </g>
</svg>
