<?xml version="1.0" encoding="UTF-8" standalone="no"?>
<!-- Created with Inkscape (http://www.inkscape.org/) -->

<svg
   version="1.1"
   id="svg1"
   width="2252.6636"
   height="615.72473"
   viewBox="0 0 2252.6636 615.72473"
   sodipodi:docname="avlgo_banner_logo_v2.svg"
   inkscape:version="1.3 (0e150ed6c4, 2023-07-21)"
   xmlns:inkscape="http://www.inkscape.org/namespaces/inkscape"
   xmlns:sodipodi="http://sodipodi.sourceforge.net/DTD/sodipodi-0.dtd"
   xmlns="http://www.w3.org/2000/svg"
   xmlns:svg="http://www.w3.org/2000/svg">
  <defs
     id="defs1" />
  <sodipodi:namedview
     id="namedview1"
     pagecolor="#ffffff"
     bordercolor="#000000"
     borderopacity="0.25"
     inkscape:showpageshadow="2"
     inkscape:pageopacity="0.0"
     inkscape:pagecheckerboard="true"
     inkscape:deskcolor="#d1d1d1"
     showgrid="false"
     inkscape:zoom="0.49822443"
     inkscape:cx="1101.913"
     inkscape:cy="577.04918"
     inkscape:window-width="2560"
     inkscape:window-height="1494"
     inkscape:window-x="-11"
     inkscape:window-y="-11"
     inkscape:window-maximized="1"
     inkscape:current-layer="g1" />
  <g
     inkscape:groupmode="layer"
     inkscape:label="Image"
     id="g1"
     transform="translate(-167.76538,-432.06068)">
    <path
       style="fill:#0871aa;fill-opacity:1"
       d="m 180.27895,1046.933 c -8.56925,-1.6601 -12.97954,-8.0433 -12.47456,-18.0552 0.5582,-11.0669 6.07834,-15.9493 18.71656,-16.5543 25.06428,-1.1999 43.68803,-7.4008 63.11778,-21.01559 11.1059,-7.7821 26.34886,-24.0696 32.45499,-34.679 2.75,-4.7781 7.17458,-12.4093 9.83239,-16.9581 2.65782,-4.5488 7.89264,-13.6706 11.63293,-20.2706 3.74029,-6.6 16.66632,-28.875 28.72451,-49.5 12.05818,-20.625 25.72337,-44.1531 30.36707,-52.2848 4.64371,-8.1316 14.90297,-25.9066 22.79836,-39.5 7.89539,-13.5933 17.16423,-29.6652 20.5974,-35.7152 6.01808,-10.6051 27.79096,-48.42 38.577,-67 2.87357,-4.95 12.18864,-21.15 20.70016,-36 17.39372,-30.3467 22.02902,-37.2997 29.11169,-43.6676 21.01587,-18.8951 53.93551,-18.3764 73.06147,1.1512 6.06143,6.1887 12.54845,15.8179 22.57938,33.5164 10.1394,17.8899 25.51047,44.5188 27.99578,48.5 1.20171,1.925 5.26235,8.9 9.02366,15.5 3.7613,6.6 11.71211,20.4091 17.66847,30.687 5.95635,10.2778 10.82973,19.25 10.82973,19.9381 0,0.6881 -0.9173,2.629 -2.03843,4.313 -1.12114,1.6841 -5.29419,8.6529 -9.27344,15.4864 -3.97925,6.8334 -7.67446,12.5514 -8.21157,12.7066 -0.53711,0.1552 -2.71823,-2.7359 -4.84693,-6.4245 -2.1287,-3.6886 -7.71305,-13.2316 -12.40967,-21.2066 -4.69662,-7.975 -10.21486,-17.425 -12.26277,-21 -2.04791,-3.575 -9.56819,-16.4 -16.71174,-28.5 -7.14354,-12.1 -18.65341,-31.9013 -25.5775,-44.0028 -21.01079,-36.7217 -23.02093,-39.0439 -33.66603,-38.8931 -9.48276,0.1343 -14.00567,3.7955 -22.14374,17.9249 -2.52509,4.384 -10.35158,17.871 -17.39222,29.971 -7.04063,12.1 -16.26114,28.075 -20.49002,35.5 -4.22888,7.425 -15.67245,27.225 -25.43016,44 -22.60424,38.8602 -47.85738,82.615 -52.52073,91 -1.98826,3.575 -7.47359,13.025 -12.18963,21 -4.71605,7.975 -11.26677,19.225 -14.55716,25 -3.29039,5.775 -8.59962,15 -11.7983,20.5 -3.19867,5.5 -9.05633,15.625 -13.01702,22.5 -15.45005,26.8183 -21.84894,37.8634 -27.22906,47 -19.81073,33.64269 -52.99397,59.56289 -89.53366,69.93669 -15.58335,4.4243 -35.54974,6.736 -44.01499,5.0961 z m 190.99857,-0.4816 c -4.98311,-1.7772 -7.55201,-4.1491 -9.80307,-9.0512 -3.54956,-7.7298 -2.46208,-11.0451 11.64496,-35.5 4.28318,-7.42499 9.44086,-16.42499 11.46151,-19.99999 5.08699,-9.0001 37.03369,-64.5197 43.44367,-75.5 2.88966,-4.95 11.91872,-20.7 20.06457,-35 18.35152,-32.216 18.24153,-32.0223 21.29955,-37.5 5.26299,-9.4273 29.47236,-51.546 30.17642,-52.5 0.40592,-0.55 2.33763,-3.925 4.2927,-7.5 12.91331,-23.613 13.82912,-24.9383 19.14225,-27.7015 4.03735,-2.0998 14.25174,-1.3913 17.80019,1.2345 6.0429,4.4718 8.3949,13.4769 5.63315,21.5678 -1.08329,3.1736 -6.43473,12.7685 -22.81115,40.8992 -3.68212,6.325 -9.77639,17.125 -13.54283,24 -3.76643,6.875 -10.31187,18.35 -14.54543,25.5 -10.28484,17.3699 -17.06071,29.7129 -16.57694,30.1967 0.89848,0.8985 46.79875,0.3694 54.73238,-0.6309 10.98653,-1.3851 29.43029,-6.1043 39.53432,-10.1155 21.74933,-8.6342 37.69364,-19.0931 53.91518,-35.3665 13.18895,-13.2312 22.51285,-25.6698 34.47365,-45.99 4.23899,-7.2016 9.86042,-16.6938 12.49206,-21.0938 2.63164,-4.4 7.27782,-12.275 10.32485,-17.5 3.04702,-5.225 7.77242,-13.325 10.50087,-18 2.72846,-4.675 10.90383,-18.85 18.1675,-31.5 19.8425,-34.5566 32.81725,-56.8833 48.5245,-83.5 3.73256,-6.325 11.61745,-19.825 17.52198,-30 18.5005,-31.881 55.23461,-94.5621 68.86062,-117.5 15.6199,-26.2944 22.96691,-34.7233 35.58874,-40.8294 16.7407,-8.0987 37.04529,-7.2184 53.06839,2.3008 13.2266,7.8577 11.0721,4.6685 68.92549,102.0286 12.2558,20.625 25.5474,42.9 29.5369,49.5 18.021,29.8132 47.4692,81.1948 47.4692,82.8247 0,1.1125 -17.7196,31.7282 -19.2481,33.2567 -0.235,0.2351 -4.8419,-7.1121 -10.2375,-16.327 -5.3957,-9.2149 -15.5239,-26.4294 -22.5071,-38.2544 -6.9833,-11.825 -17.3212,-29.375 -22.9731,-39 -5.6519,-9.625 -12.98219,-22 -16.28939,-27.5 -3.3073,-5.5 -8.4824,-14.275 -11.5002,-19.5 -3.0178,-5.225 -14.0406,-23.9 -24.4952,-41.5 -10.4545,-17.6 -20.8623,-35.15 -23.1285,-39 -7.7758,-13.2099 -14.5297,-18.4708 -23.95579,-18.66 -6.4696,-0.1299 -10.7824,1.6747 -15.3502,6.4231 -2.2418,2.3303 -10.26814,14.8119 -17.83641,27.7369 -7.56826,12.925 -15.87149,27.1 -18.45162,31.5 -2.58014,4.4 -8.87357,15.2 -13.98541,24 -5.11184,8.8 -12.77026,21.85 -17.01871,29 -4.24845,7.15 -12.14133,20.65 -17.53974,30 -14.88137,25.7744 -22.24896,38.4017 -32.96578,56.5 -5.37372,9.075 -11.57007,19.65 -13.76968,23.5 -2.19961,3.85 -9.04479,15.55 -15.21152,26 -13.95457,23.6471 -24.44647,41.6229 -27.72419,47.5 -6.76824,12.1357 -18.42493,31.9698 -21.03755,35.7958 l -2.93341,4.2958 5.71349,10.2042 c 3.14243,5.6123 10.31928,18.0792 15.94856,27.7042 5.62929,9.625 14.62644,25.15 19.99366,34.5 8.73156,15.2109 18.07003,31.3035 38.29932,66 3.52737,6.05 9.45846,16.4 13.18019,23 3.72174,6.6 11.61502,20.1 17.54063,29.99999 5.9256,9.9 11.38345,19.448 12.12855,21.2179 1.98322,4.7107 1.659,10.256 -0.89528,15.3121 -3.24198,6.4175 -7.57247,8.97 -15.21788,8.97 -9.1956,0 -11.9642,-2.8118 -24.88143,-25.2695 -5.7672,-10.0268 -15.16709,-26.33049 -20.88865,-36.23049 -5.72156,-9.9 -15.7146,-27.225 -22.20675,-38.5 -6.49216,-11.275 -15.27847,-26.35 -19.52515,-33.5 -7.2975,-12.2866 -25.44511,-43.7394 -35.05143,-60.75 -2.40715,-4.2625 -4.64648,-7.75 -4.97629,-7.75 -0.32982,0 -3.5968,3.7697 -7.25998,8.3771 -3.66318,4.6075 -11.07695,12.4925 -16.47505,17.5224 -25.954,24.1833 -52.6637,38.9718 -86.07102,47.6552 -20.87845,5.4268 -24.2977,5.7534 -66.65529,6.3667 l -39.95892,0.5786 -8.93408,16 c -11.20448,20.0661 -14.11523,25.1704 -25.66126,45 -5.12391,8.8 -11.55719,20.04999 -14.29618,24.99999 -15.52984,28.066 -19.69223,33.8507 -25.52291,35.4701 -4.74406,1.3177 -6.82778,1.2417 -11.48393,-0.4189 z m 557.31619,0.4294 c -8.0263,-1.3996 -9.0594,-2.6561 -25.06009,-30.4806 -20.69052,-35.97989 -35.39404,-61.58929 -38.18069,-66.49999 -2.65979,-4.6871 -14.21616,-24.7084 -39.24993,-68 -8.11008,-14.025 -21.27795,-36.975 -29.26193,-51 -23.25941,-40.8585 -26.35448,-46.2189 -29.7388,-51.5056 -5.47268,-8.5488 -6.58246,-11.3651 -6.64823,-16.8713 -0.0734,-6.142 1.7424,-10.2696 6.14883,-13.9773 7.05422,-5.9358 16.78556,-5.6335 22.76674,0.7072 3.02783,3.2098 13.79421,21.4303 39.38125,66.647 6.25056,11.0458 36.77672,64.2011 54.84404,95.5 4.76232,8.25 17.31352,30.075 27.89152,48.5 10.57799,18.425 19.59489,33.8679 20.03759,34.3176 0.852,0.8654 10.9325,-15.2049 23.0946,-36.8176 4.0236,-7.15 10.0187,-17.5 13.3226,-23 3.3039,-5.5 8.3248,-14.05 11.1577,-19 2.8329,-4.95 15.4278,-26.55 27.98869,-48 12.5608,-21.45 24.2653,-41.475 26.0098,-44.5 1.7445,-3.025 6.674,-11.575 10.9544,-19 4.2804,-7.425 11.2578,-19.35 15.5053,-26.5 4.2476,-7.15 14.7094,-25.15 23.2485,-40 8.5391,-14.85 23.3045,-40.275 32.8121,-56.5 9.5077,-16.225 22.9106,-39.175 29.7843,-51 13.828,-23.7888 17.0223,-28.2837 25.0588,-35.2624 9.7791,-8.4919 21.093,-12.7051 34.1728,-12.7257 14.2496,-0.022 24.856,4.2174 35.5309,14.2032 8.715,8.1524 10.3274,10.6351 35.9072,55.2849 11.9736,20.9 26.7417,46.55 32.8181,57 11.9266,20.5113 21.7632,37.4987 31.1159,53.7361 3.2516,5.6451 9.5777,16.5639 14.058,24.2639 4.4803,7.7 11.7781,20.3 16.2173,28 4.4392,7.7 15.2438,26.375 24.0104,41.5 21.7716,37.5628 44.9573,77.743 50.7798,88 8.8343,15.5625 15.2608,24.4146 24.4364,33.6597 17.522,17.6545 39.7027,29.20479 64.0861,33.37179 7.0494,1.2047 99.1638,2.1042 109.5,1.0693 l 6,-0.6008 -4,-2.4323 c -19.2464,-11.70339 -47.5422,-42.18199 -61.7861,-66.55219 -22.6757,-38.7965 -33.9202,-78.398 -35.3944,-124.6533 -1.3857,-43.4787 6.4296,-82.675 23.9987,-120.3622 16.5238,-35.445 37.3351,-61.37 68.0906,-84.8216 17.4794,-13.3283 41.3447,-24.925 64.1658,-31.1795 47.8968,-13.1271 94.2501,-12.0946 139.3001,3.1029 21.8214,7.3614 51.813,25.1768 65.6085,38.9724 8.1367,8.1366 8.4477,21.0636 0.713,29.6354 -4.4609,4.9436 -8.5463,6.7977 -14.9141,6.7684 -5.9456,-0.027 -10.9312,-2.2577 -19.2821,-8.6264 -16.9298,-12.9114 -29.6253,-20.2672 -46.1134,-26.7183 -22.8988,-8.9594 -54.2373,-12.5144 -81.8866,-9.2893 -40.4013,4.7125 -72.5216,20.1885 -100.2264,48.2903 -37.6038,38.1427 -56.9424,87.7281 -57.0834,146.3657 -0.024,10.1554 0.6056,21.1893 1.6383,28.695 7.7337,56.2066 37.3571,106.9852 79.9061,136.9703 16.963,11.9542 39.8786,21.7822 61.3961,26.33149 15.4747,3.2717 41.9837,3.7866 59.5849,1.1573 26.9147,-4.02059 47.4181,-11.95639 70.1305,-27.14389 6.7716,-4.5281 10.8359,-7.9155 11.1744,-9.3133 0.2925,-1.2083 0.4076,-29.3071 0.2557,-62.4417 l -0.2762,-60.2448 -49.5,-0.2552 c -45.6736,-0.2355 -49.8275,-0.3985 -53.7373,-2.1087 -13.2751,-5.8069 -16.3754,-24.043 -5.7607,-33.8855 6.1336,-5.6875 7.0865,-5.761 74.645,-5.761 50.1613,0 62.5397,0.2601 65.1958,1.3699 4.3411,1.8138 10.4367,9.0601 11.3924,13.5428 0.4206,1.973 0.7648,40.0373 0.7648,84.5873 v 81 l -2.7351,4.6526 c -7.4256,12.6317 -39.5625,34.88539 -64.4524,44.63129 -15.6716,6.1363 -33.46,10.8556 -52.3133,13.879 -9.2914,1.4899 -23.7802,1.7278 -125.9452,2.0679 -72.1492,0.2401 -120.5537,0 -129.0652,-0.6277 -39.0785,-2.9036 -73.199,-18.8203 -100.6439,-46.9491 -9.8986,-10.14519 -21.5875,-28.05389 -43.8309,-67.15399 -4.8498,-8.525 -12.6544,-22.025 -17.3436,-30 -4.6893,-7.975 -11.761,-20.125 -15.715,-27 -3.9539,-6.875 -13.7739,-23.8935 -21.8222,-37.8188 -8.0483,-13.9254 -14.6332,-25.4654 -14.6332,-25.6446 0,-0.1792 -4.3259,-7.6857 -9.6131,-16.6812 -5.2872,-8.9955 -12.4284,-21.3054 -15.8694,-27.3554 -3.4409,-6.05 -10.1979,-17.75 -15.0155,-26 -7.8068,-13.369 -15.9371,-27.4202 -27.4847,-47.5 -6.8547,-11.9195 -15.2478,-26.4089 -20.2739,-35 -2.7351,-4.675 -7.9148,-13.9 -11.5105,-20.5 -7.7851,-14.2897 -12.6264,-19.7903 -18.9856,-21.5707 -5.4955,-1.5387 -11.9527,-0.1541 -16.908,3.6255 -2.5859,1.9723 -15.3393,21.1398 -15.3393,23.0538 0,0.2835 -3.9814,7.1251 -8.8475,15.2035 -8.4832,14.0832 -16.3451,27.5974 -37.6322,64.6879 -5.3662,9.35 -11.2238,19.2732 -13.0169,22.0514 -1.7931,2.7783 -4.2533,6.9983 -5.4672,9.3777 -1.2139,2.3794 -5.899,10.4562 -10.4113,17.9485 -4.5124,7.4923 -9.9475,16.7724 -12.0781,20.6224 -2.1307,3.85 -8.6881,15.1 -14.5721,25 -5.884,9.9 -15.0858,25.65 -20.4484,35 -10.7771,18.7905 -16.4222,28.4627 -30.0575,51.5 -5.0458,8.525 -14.4882,24.725 -20.9831,36 -6.49489,11.275 -15.03729,25.9 -18.98329,32.5 -3.9459,6.6 -10.693,18.3 -14.9936,25.99999 -4.3005,7.7 -9.5068,16.7 -11.5695,20 -2.0627,3.3 -5.0303,8.4312 -6.5948,11.4026 -4.5782,8.6954 -10.0334,13.9971 -15.3445,14.9126 -2.475,0.4267 -6.075,0.5011 -8,0.1654 z m 132.49999,0.3706 c -1.1,-0.236 -2.9778,-0.6364 -4.1729,-0.8898 -2.9957,-0.6353 -8.0817,-5.0861 -9.958,-8.7145 -3.2676,-6.319 -1.7065,-14.0396 5.2063,-25.7469 1.4614,-2.475 7.955,-13.72499 14.4303,-24.99999 6.4752,-11.275 15.9398,-27.7 21.0323,-36.5 5.0926,-8.8 19.5947,-34 32.227,-56 12.6323,-22 23.7688,-41.35 24.7477,-43 5.5977,-9.4349 28.1806,-49.0255 46.6645,-81.8085 9.9112,-17.5786 11.7352,-20.1652 16.1378,-22.8861 4.7449,-2.9326 13.1561,-2.7682 17.7009,0.3459 4.8552,3.3269 7.9033,9.2658 7.9084,15.4088 0,4.3324 -0.844,6.5614 -5.8946,15.5 -11.8982,21.0575 -21.976,38.7172 -28.4988,49.9399 -3.6763,6.325 -9.0817,15.775 -12.0122,21 -2.9304,5.225 -6.7746,11.975 -8.5427,15 -1.768,3.025 -7.0281,12.025 -11.6892,20 -4.661,7.975 -14.0573,24.3013 -20.8807,36.2806 -6.8233,11.9794 -14.3961,25.2544 -16.8284,29.5 -2.4322,4.2457 -6.0322,10.5347 -8,13.9756 -1.9677,3.4409 -8.9099,15.5088 -15.4269,26.8174 -6.5171,11.30869 -11.5421,20.86839 -11.1667,21.24379 0.3754,0.3754 63.7575,0.7834 140.8492,0.9067 77.0917,0.1232 141.671,0.4392 143.5097,0.7022 1.8386,0.263 4.8766,1.6479 6.751,3.0776 9.3927,7.1641 8.913,21.8232 -0.9271,28.3353 l -4.0205,2.6608 -158.5732,0.1401 c -87.2153,0.077 -159.4732,-0.053 -160.5732,-0.2889 z m 1118,-0.4012 c -68.8312,-7.0785 -127.5879,-44.248 -162.7412,-102.94999 -15.0884,-25.196 -25.3407,-51.9203 -31.2151,-81.3675 -3.9367,-19.7336 -4.927,-30.8285 -4.9209,-55.1325 0,-18.8114 0.4133,-25.6406 2.2443,-37.5 7.3641,-47.7001 22.1112,-82.9393 50.0089,-119.5 11.0954,-14.5407 29.6419,-31.553 47.2191,-43.313 45.328,-30.3267 107.851,-42.014 163.9049,-30.6385 14.1378,2.8691 13.9811,2.826 31,8.524 68.6707,22.9914 118.4915,80.8651 138.5349,160.9275 8.7584,34.9849 9.7204,81.1886 2.4297,116.6913 -15.072,73.3942 -57.8354,132.7419 -116.9646,162.32529 -20.0309,10.0218 -42.9223,17.2065 -65.1039,20.4335 -13.2185,1.923 -42.4452,2.7289 -54.3961,1.4999 z m 46.3717,-43.5107 c 36.75,-5.39659 69.1935,-21.65639 95.6503,-47.93739 23.4041,-23.2486 41.6631,-55.9772 50.4677,-90.4617 7.9487,-31.1317 8.6935,-71.3965 1.8968,-102.5402 -12.37,-56.6819 -41.4704,-98.6263 -87.6002,-126.2641 -26.7068,-16.0009 -66.4276,-24.4354 -101.0349,-21.4541 -35.2884,3.04 -62.6625,13.4833 -89.2514,34.0497 -28.9093,22.3613 -48.0037,49.5687 -61.512,87.6477 -8.6513,24.3874 -11.9643,48.0327 -11.2122,80.0208 0.6727,28.6056 3.3572,43.5568 12.3893,69 11.0331,31.0798 33.6304,63.3327 57.9364,82.692 24.9858,19.9007 51.0057,30.7897 86.3985,36.15649 7.1579,1.0854 36.2098,0.5096 45.8717,-0.9092 z"
       id="path1" />
  </g>
</svg>
